<?xml version="1.0" encoding="UTF-8" standalone="no"?>
<svg width="152px" height="152px" viewBox="0 0 152 152" version="1.1" xmlns="http://www.w3.org/2000/svg" xmlns:xlink="http://www.w3.org/1999/xlink">
    <!-- Generator: Sketch 3.6.1 (26313) - http://www.bohemiancoding.com/sketch -->
    <title>Shape</title>
    <desc>Created with Sketch.</desc>
    <defs></defs>
    <g id="Page-1" stroke="none" stroke-width="1" fill="none" fill-rule="evenodd">
        <g id="Artboard-1-Copy-2" transform="translate(-433.000000, -580.000000)" fill="#E5C228">
            <g id="Sketch" transform="translate(56.000000, 580.000000)">
                <g id="App" transform="translate(377.000000, 0.000000)">
                    <path d="M75.8222223,0 C33.9456791,0 1.42108547e-14,33.94321 1.42108547e-14,75.8222223 C1.42108547e-14,117.701235 33.9481482,151.644445 75.8222223,151.644445 C117.696296,151.644445 151.644445,117.701235 151.644445,75.8222223 C151.644445,33.94321 117.698765,0 75.8222223,0 L75.8222223,0 Z M75.8222223,144.753087 C37.7506174,144.753087 6.89135801,113.893827 6.89135801,75.8222223 C6.89135801,37.7506172 37.7506172,6.89135801 75.8222223,6.89135801 C113.891358,6.89135801 144.753087,37.7506172 144.753087,75.8222223 C144.753087,113.893827 113.893827,144.753087 75.8222223,144.753087 L75.8222223,144.753087 Z M72.691358,47.7802469 C73.3901234,46.3802469 72.6617283,43.948148 70.5629629,42.6395061 C68.5703703,41.3950615 66.0395061,41.7086418 64.9901234,43.1111109 C63.9358025,44.5086418 62.4790123,47.1975307 62.4790123,47.1975307 L70.474074,51.9777775 C70.4716049,51.9777777 71.9012346,49.3506174 72.691358,47.7802469 L72.691358,47.7802469 Z M34.9901234,104.059259 L45.3209877,97.14321 L37.0024691,92.1555557 L34.9901234,104.059259 Z M103.234568,81.3851852 L111.328395,81.3851852 L111.328395,71.5777777 L98.0839506,71.5777777 L75.6962963,28.9703705 L66.9925926,33.4765432 L87.0074074,71.5777777 L59.7333334,71.5777777 L70.0049383,53.3728395 L61.5037037,48.4839506 L48.474074,71.5777777 L32.8864197,71.5777777 L32.8864197,81.3851852 L42.9456791,81.3851852 L37.7950617,90.5234568 L46.291358,95.4148148 L54.2049383,81.3851852 L92.1580248,81.3851852 L95.7925926,88.3160494 L104.508642,83.8098766 L103.234568,81.3851852 Z M105.348148,84.9382717 L96.7234568,89.54321 L100.032099,95.9333334 L108.896296,91.7333334 L105.348148,84.9382717 Z M104.91358,95.0444445 C102.392593,96.4469137 101.760494,99.0123457 102.575309,100.992593 C103.395062,102.980247 107.249383,104.965432 108.298765,106.135803 C109.348148,107.306173 108.765432,110.802469 108.765432,110.802469 C109.585185,109.755556 110.748148,109.046914 111.795062,106.249383 C112.846913,103.444445 112.846913,100.061729 111.330864,96.9086422 C109.817284,93.7580248 106.417284,94.2098766 104.91358,95.0444445 L104.91358,95.0444445 Z" id="Shape"></path>
                </g>
            </g>
        </g>
    </g>
</svg>