<?xml version="1.0" encoding="UTF-8" standalone="no"?>
<svg width="89px" height="91px" viewBox="0 0 89 91" version="1.1" xmlns="http://www.w3.org/2000/svg" xmlns:xlink="http://www.w3.org/1999/xlink">
    <!-- Generator: Sketch 3.6.1 (26313) - http://www.bohemiancoding.com/sketch -->
    <title>Blog</title>
    <desc>Created with Sketch.</desc>
    <defs></defs>
    <g id="Page-2" stroke="none" stroke-width="1" fill="none" fill-rule="evenodd">
        <g id="Artboard-2" transform="translate(-670.000000, -495.000000)" fill="#E5C228">
            <g id="Blog" transform="translate(670.000000, 495.000000)">
                <path d="M75.3,31.2 L75.3,84.1 C75.3,85.2 74.4,86.1 73.3,86.1 L6.8,86.1 C5.7,86.1 4.8,85.2 4.8,84.1 L4.8,15.7 C4.8,14.6 5.7,13.7 6.8,13.7 L57.8,13.7 L61.7,9.8 L6.8,9.8 C3.6,9.8 0.9,12.4 0.9,15.7 L0.9,84.2 C0.9,87.4 3.5,90.1 6.8,90.1 L73.3,90.1 C76.5,90.1 79.2,87.5 79.2,84.2 L79.2,27.3 L75.3,31.2 L75.3,31.2 Z" id="Shape"></path>
                <path d="M88.4,8.4 L80.6,0.6 C79.8,-0.2 78.6,-0.2 77.8,0.6 L32.8,45.6 C32.7,45.8 32.6,45.9 32.4,46.1 L26.6,59.8 C26.2,60.6 26.4,61.5 27,62.1 C27.6,62.7 28.4,62.9 29.3,62.5 L43,56.7 C43.2,56.6 43.3,56.5 43.5,56.3 L88.5,11.3 C89.2,10.4 89.2,9.2 88.4,8.4 L88.4,8.4 Z M31.4,57.7 L35.6,47.9 L41.2,53.5 L31.4,57.7 L31.4,57.7 Z M80.4,14.3 L74.8,8.7 L79.3,4.2 L84.9,9.8 L80.4,14.3 L80.4,14.3 Z" id="Shape"></path>
            </g>
        </g>
    </g>
</svg>