<?xml version="1.0" encoding="UTF-8" standalone="no"?>
<svg width="64px" height="57px" viewBox="0 0 64 57" version="1.1" xmlns="http://www.w3.org/2000/svg" xmlns:xlink="http://www.w3.org/1999/xlink">
    <!-- Generator: Sketch 3.6.1 (26313) - http://www.bohemiancoding.com/sketch -->
    <title>Bulb</title>
    <desc>Created with Sketch.</desc>
    <defs></defs>
    <g id="Page-1" stroke="none" stroke-width="1" fill="none" fill-rule="evenodd">
        <g id="Artboard-1-Copy-2" transform="translate(-637.000000, -672.000000)">
            <g id="Sketch" transform="translate(56.000000, 641.000000)">
                <g id="Bulb" transform="translate(582.000000, 32.000000)">
                    <path d="M31.15625,9 C22.232125,9 15,16.232125 15,25.15625 C15,31.0767812 20.41675,37.3512812 22.3892812,42.8620312 C25.3311875,51.0796875 25.005125,56 31.15625,56 C37.3984375,56 36.9798438,51.1031875 39.9232188,42.8958125 C41.901625,37.3733125 47.3125,31.03125 47.3125,25.15625 C47.3125,16.232125 40.0774375,9 31.15625,9 L31.15625,9 Z M34.96325,48.91475 L27.6811875,49.8239062 C27.4212188,49.0719062 27.1421563,48.192125 26.802875,47.0435625 C26.7984688,47.028875 26.7925938,47.0127187 26.7896563,46.9980312 L35.8782813,45.8626875 C35.7490313,46.2959687 35.6109688,46.7512812 35.4905313,47.1595937 C35.298125,47.8190625 35.1262813,48.391875 34.96325,48.91475 L34.96325,48.91475 Z M26.36225,45.583625 C26.0949375,44.6994375 25.7938437,43.76825 25.4589687,42.78125 L36.8652812,42.78125 C36.684625,43.3085313 36.5039687,43.8372813 36.3482812,44.3366563 L26.36225,45.583625 L26.36225,45.583625 Z M31.15625,53.0625 C29.6684063,53.0625 28.9839688,52.8906562 28.2231563,51.2265625 L34.4477188,50.4466562 C33.5459063,52.8759687 32.889375,53.0625 31.15625,53.0625 L31.15625,53.0625 Z M38.01825,39.84375 L24.3104062,39.84375 C23.5789687,38.2575 22.7006562,36.67125 21.8340937,35.1187813 C19.917375,31.68925 17.9375,28.1422187 17.9375,25.15625 C17.9375,17.8668438 23.8668437,11.9375 31.15625,11.9375 C38.4456562,11.9375 44.375,17.8668438 44.375,25.15625 C44.375,28.1201875 42.3921875,31.6863125 40.474,35.1364063 C39.61625,36.683 38.7438125,38.2663125 38.01825,39.84375 L38.01825,39.84375 Z M31.15625,16.34375 C26.2961562,16.34375 22.34375,20.2961562 22.34375,25.15625 C22.34375,25.561625 22.67275,25.890625 23.078125,25.890625 C23.4835,25.890625 23.8125,25.561625 23.8125,25.15625 C23.8125,21.1069062 27.1069062,17.8125 31.15625,17.8125 C31.561625,17.8125 31.890625,17.4835 31.890625,17.078125 C31.890625,16.67275 31.5601562,16.34375 31.15625,16.34375 L31.15625,16.34375 Z" id="Shape-Copy" fill="#E5C228"></path>
                    <path d="M24.3069965,41 C23.4683507,39.2947368 22.4613021,37.5894737 21.4677257,35.9205263 C19.2700694,32.2336842 17,28.4205263 17,25.2105263 C17,17.3742105 23.7984201,11 32.15625,11 C40.5140799,11 47.3125,17.3742105 47.3125,25.2105263 C47.3125,28.3968421 45.0390625,32.2305263 42.8397222,35.9394737 C41.85625,37.6021053 40.8559375,39.3042105 40.0240278,41 L24.3069965,41 Z" id="Path" fill="#E5C228"></path>
                    <path d="M31.0163491,0 L31.0163491,5.5 M53.0499722,11.0895591 L48.7756694,14.5508212 M58.7586999,36.0716579 L53.3996645,34.8344271 M1.24130013,36.0716579 L6.60033549,34.8344271 M6.95002783,11.0895591 L11.2243306,14.5508212" id="Line" stroke="#E5C228" stroke-width="2" stroke-linecap="round"></path>
                    <path d="M44.8095495,1 L42,7.95387891 M61.8842099,22.5004265 L54.7119242,24.6932142 M0.140166491,22.3877644 L7.54782905,23.5610229 M17.3523979,0.920109624 L20.9884701,7.47975743" id="Path-Copy" stroke="#E5C228" stroke-width="2" stroke-linecap="round"></path>
                </g>
            </g>
        </g>
    </g>
</svg>