<?xml version="1.0" encoding="UTF-8" standalone="no"?>
<svg width="34px" height="47px" viewBox="0 0 34 47" version="1.1" xmlns="http://www.w3.org/2000/svg" xmlns:xlink="http://www.w3.org/1999/xlink">
    <!-- Generator: Sketch 3.6.1 (26313) - http://www.bohemiancoding.com/sketch -->
    <title>BulbNolihgt</title>
    <desc>Created with Sketch.</desc>
    <defs></defs>
    <g id="Page-1" stroke="none" stroke-width="1" fill="none" fill-rule="evenodd">
        <g id="Artboard-1-Copy-2" transform="translate(-597.000000, -682.000000)" fill="#E5C228">
            <g id="Sketch" transform="translate(56.000000, 641.000000)">
                <path d="M557.96875,41 C549.044625,41 541.8125,48.232125 541.8125,57.15625 C541.8125,63.0767812 547.22925,69.3512812 549.201781,74.8620312 C552.143688,83.0796875 551.817625,88 557.96875,88 C564.210938,88 563.792344,83.1031875 566.735719,74.8958125 C568.714125,69.3733125 574.125,63.03125 574.125,57.15625 C574.125,48.232125 566.889937,41 557.96875,41 L557.96875,41 Z M561.77575,80.91475 L554.493687,81.8239062 C554.233719,81.0719062 553.954656,80.192125 553.615375,79.0435625 C553.610969,79.028875 553.605094,79.0127187 553.602156,78.9980312 L562.690781,77.8626875 C562.561531,78.2959687 562.423469,78.7512812 562.303031,79.1595937 C562.110625,79.8190625 561.938781,80.391875 561.77575,80.91475 L561.77575,80.91475 Z M553.17475,77.583625 C552.907437,76.6994375 552.606344,75.76825 552.271469,74.78125 L563.677781,74.78125 C563.497125,75.3085313 563.316469,75.8372813 563.160781,76.3366563 L553.17475,77.583625 L553.17475,77.583625 Z M557.96875,85.0625 C556.480906,85.0625 555.796469,84.8906562 555.035656,83.2265625 L561.260219,82.4466562 C560.358406,84.8759687 559.701875,85.0625 557.96875,85.0625 L557.96875,85.0625 Z M564.83075,71.84375 L551.122906,71.84375 C550.391469,70.2575 549.513156,68.67125 548.646594,67.1187813 C546.729875,63.68925 544.75,60.1422187 544.75,57.15625 C544.75,49.8668438 550.679344,43.9375 557.96875,43.9375 C565.258156,43.9375 571.1875,49.8668438 571.1875,57.15625 C571.1875,60.1201875 569.204687,63.6863125 567.2865,67.1364063 C566.42875,68.683 565.556312,70.2663125 564.83075,71.84375 L564.83075,71.84375 Z M557.96875,48.34375 C553.108656,48.34375 549.15625,52.2961562 549.15625,57.15625 C549.15625,57.561625 549.48525,57.890625 549.890625,57.890625 C550.296,57.890625 550.625,57.561625 550.625,57.15625 C550.625,53.1069062 553.919406,49.8125 557.96875,49.8125 C558.374125,49.8125 558.703125,49.4835 558.703125,49.078125 C558.703125,48.67275 558.372656,48.34375 557.96875,48.34375 L557.96875,48.34375 Z" id="BulbNolihgt"></path>
            </g>
        </g>
    </g>
</svg>