<?xml version="1.0" encoding="UTF-8" standalone="no"?>
<svg width="50px" height="50px" viewBox="0 0 50 50" version="1.1" xmlns="http://www.w3.org/2000/svg" xmlns:xlink="http://www.w3.org/1999/xlink">
    <!-- Generator: Sketch 3.6.1 (26313) - http://www.bohemiancoding.com/sketch -->
    <title>global_L</title>
    <desc>Created with Sketch.</desc>
    <defs></defs>
    <g id="Page-2" stroke="none" stroke-width="1" fill="none" fill-rule="evenodd">
        <g id="Artboard-2" transform="translate(-906.000000, -614.000000)" fill="#E5C228">
            <path d="M936.354,661.364 C938.298,659.348 939.939,656.276 941.109,652.508 C943.304,653.174 945.405,654.047 947.395,655.11 C944.421,658.137 940.616,660.344 936.354,661.364 C936.354,661.364 940.616,660.344 936.354,661.364 L936.354,661.364 L936.354,661.364 L936.354,661.364 Z M914.603,655.108 C916.577,654.055 918.66,653.188 920.834,652.526 C921.999,656.272 923.633,659.332 925.565,661.346 C921.336,660.317 917.56,658.118 914.603,655.108 C914.603,655.108 917.56,658.118 914.603,655.108 L914.603,655.108 L914.603,655.108 L914.603,655.108 Z M925.565,616.655 C923.635,618.666 922.001,621.723 920.836,625.465 C918.664,624.803 916.582,623.936 914.61,622.885 C917.565,619.879 921.339,617.682 925.565,616.655 C925.565,616.655 921.339,617.682 925.565,616.655 L925.565,616.655 L925.565,616.655 L925.565,616.655 Z M947.39,622.885 C945.4,623.944 943.3,624.819 941.106,625.483 C939.937,621.721 938.296,618.651 936.355,616.635 C940.613,617.657 944.415,619.86 947.39,622.885 C947.39,622.885 944.415,619.86 947.39,622.885 L947.39,622.885 L947.39,622.885 L947.39,622.885 Z M943.012,638 C942.938,634.188 942.455,630.598 941.648,627.411 C944.142,626.657 946.524,625.647 948.767,624.412 C951.837,628.143 953.753,632.856 953.975,638 L943.012,638 L943.012,638 L943.012,638 L943.012,638 L943.012,638 Z M943.012,640 L953.975,640 C953.754,645.141 951.84,649.85 948.773,653.58 C946.528,652.346 944.146,651.334 941.65,650.58 C942.456,647.395 942.938,643.807 943.012,640 C943.012,640 942.938,643.807 943.012,640 L943.012,640 L943.012,640 L943.012,640 Z M932,649.03 L932,640 L940.999,640 C940.926,643.719 940.462,647.112 939.716,650.057 C937.23,649.452 934.651,649.1 932,649.03 C932,649.03 934.651,649.1 932,649.03 L932,649.03 L932,649.03 L932,649.03 Z M932,661.842 L932,651.028 C934.463,651.098 936.859,651.424 939.17,651.981 C937.43,657.496 934.697,661.096 932,661.842 C932,661.842 934.697,661.096 932,661.842 L932,661.842 L932,661.842 L932,661.842 Z M930,651.028 L930,661.866 C927.284,661.157 924.525,657.545 922.771,651.994 C925.1,651.428 927.517,651.098 930,651.028 C930,651.028 927.517,651.098 930,651.028 L930,651.028 L930,651.028 L930,651.028 Z M920.938,640 L930,640 L930,649.03 C927.328,649.1 924.728,649.457 922.225,650.071 C921.476,647.123 921.012,643.725 920.938,640 C920.938,640 921.012,643.725 920.938,640 L920.938,640 L920.938,640 L920.938,640 Z M918.926,640 C918.999,643.815 919.483,647.411 920.291,650.6 C917.817,651.352 915.454,652.356 913.227,653.582 C910.161,649.852 908.246,645.141 908.025,640 L918.926,640 L918.926,640 L918.926,640 L918.926,640 L918.926,640 Z M918.926,638 L908.025,638 C908.246,632.86 910.161,628.149 913.227,624.418 C915.454,625.645 917.816,626.649 920.291,627.399 C919.483,630.588 918.999,634.184 918.926,638 C918.926,638 918.999,634.184 918.926,638 L918.926,638 L918.926,638 L918.926,638 Z M930,628.959 L930,638 L920.938,638 C921.012,634.272 921.477,630.871 922.226,627.922 C924.729,628.534 927.328,628.889 930,628.959 C930,628.959 927.328,628.889 930,628.959 L930,628.959 L930,628.959 L930,628.959 Z M930,616.135 L930,626.961 C927.517,626.891 925.101,626.561 922.774,625.994 C924.529,620.45 927.286,616.842 930,616.135 C930,616.135 927.286,616.842 930,616.135 L930,616.135 L930,616.135 L930,616.135 Z M932,626.961 L932,616.159 C934.696,616.905 937.427,620.498 939.168,626.01 C936.858,626.567 934.462,626.891 932,626.961 C932,626.961 934.462,626.891 932,626.961 L932,626.961 L932,626.961 L932,626.961 Z M932,628.961 C934.65,628.889 937.229,628.539 939.713,627.934 C940.462,630.881 940.926,634.278 940.999,638 L932,638 L932,628.961 L932,628.961 L932,628.961 L932,628.961 L932,628.961 Z M931,614 L930.978,614 L930.969,614 C930.959,614 930.949,614.002 930.939,614.002 C917.159,614.034 906,625.213 906,639 C906,652.784 917.159,663.965 930.939,663.998 C930.949,663.998 930.959,664 930.969,664 L930.978,664 L931,664 C944.805,664 956,652.805 956,639 C956,625.194 944.805,614 931,614 L931,614 L931,614 Z" id="global_L"></path>
        </g>
    </g>
</svg>