<?xml version="1.0" encoding="UTF-8" standalone="no"?>
<svg width="98px" height="43px" viewBox="0 0 98 43" version="1.1" xmlns="http://www.w3.org/2000/svg" xmlns:xlink="http://www.w3.org/1999/xlink">
    <!-- Generator: Sketch 3.6.1 (26313) - http://www.bohemiancoding.com/sketch -->
    <title>Shape</title>
    <desc>Created with Sketch.</desc>
    <defs></defs>
    <g id="Page-2" stroke="none" stroke-width="1" fill="none" fill-rule="evenodd">
        <g id="Artboard-2" transform="translate(-643.000000, -731.000000)" fill="#E5C228">
            <path d="M719.044,773.52 C707.736,773.52 699.66,764.644 692,755.528 C684.268,764.724 676.216,773.52 664.956,773.52 C653.368,773.52 643.936,764.096 643.936,752.5 C643.936,740.904 653.364,731.48 664.956,731.48 C676.34,731.48 684.388,740.24 692,749.296 C699.608,740.244 707.66,731.48 719.044,731.48 C730.632,731.48 740.064,740.904 740.064,752.5 C740.064,764.096 730.632,773.52 719.044,773.52 L719.044,773.52 Z M694.608,752.412 C702.176,761.44 709.36,769.52 719.04,769.52 C728.428,769.52 736.06,761.884 736.06,752.5 C736.06,743.116 728.428,735.48 719.04,735.48 C709.256,735.48 701.764,743.88 694.608,752.412 L694.608,752.412 Z M664.96,735.48 C655.576,735.48 647.94,743.116 647.94,752.5 C647.94,761.884 655.576,769.52 664.96,769.52 C674.688,769.52 681.9,761.36 689.396,752.412 C682.24,743.88 674.752,735.48 664.96,735.48 L664.96,735.48 Z" id="Shape"></path>
        </g>
    </g>
</svg>