<?xml version="1.0" encoding="UTF-8" standalone="no"?>
<svg width="44px" height="59px" viewBox="0 0 44 59" version="1.1" xmlns="http://www.w3.org/2000/svg" xmlns:xlink="http://www.w3.org/1999/xlink">
    <!-- Generator: Sketch 3.6.1 (26313) - http://www.bohemiancoding.com/sketch -->
    <title>location_F</title>
    <desc>Created with Sketch.</desc>
    <defs>
        <filter x="-50%" y="-50%" width="200%" height="200%" filterUnits="objectBoundingBox" id="filter-1">
            <feOffset dx="0" dy="2" in="SourceAlpha" result="shadowOffsetOuter1"></feOffset>
            <feGaussianBlur stdDeviation="2" in="shadowOffsetOuter1" result="shadowBlurOuter1"></feGaussianBlur>
            <feColorMatrix values="0 0 0 0 0   0 0 0 0 0   0 0 0 0 0  0 0 0 0.35 0" in="shadowBlurOuter1" type="matrix" result="shadowMatrixOuter1"></feColorMatrix>
            <feMerge>
                <feMergeNode in="shadowMatrixOuter1"></feMergeNode>
                <feMergeNode in="SourceGraphic"></feMergeNode>
            </feMerge>
        </filter>
    </defs>
    <g id="Page-1" stroke="none" stroke-width="1" fill="none" fill-rule="evenodd" filter="url(#filter-1)">
        <g id="Artboard-1-Copy-2" transform="translate(-44.000000, -582.000000)" fill="#DA5635">
            <g id="Sketch" transform="translate(0.000000, 552.000000)">
                <g id="Stop1-Copy">
                    <g transform="translate(48.000000, 32.000000)">
                        <g>
                            <path d="M18,50.6590415 C22.2789484,50.6590415 36,27.941126 36,18 C36,8.05887402 27.9411258,0 18,0 C8.05887424,0 0,8.05887402 0,18 C0,27.941126 13.7210516,50.6590423 18,50.6590415 L18,50.6590415 Z M18,24.3529412 C21.5086331,24.3529412 24.3529412,21.5086327 24.3529412,18 C24.3529412,14.4913673 21.5086331,11.6470588 18,11.6470588 C14.4913669,11.6470588 11.6470588,14.4913673 11.6470588,18 C11.6470588,21.5086327 14.4913669,24.3529412 18,24.3529412 L18,24.3529412 Z" id="location_F"></path>
                        </g>
                    </g>
                </g>
            </g>
        </g>
    </g>
</svg>