<?xml version="1.0" encoding="UTF-8" standalone="no"?>
<svg width="77px" height="77px" viewBox="0 0 77 77" version="1.1" xmlns="http://www.w3.org/2000/svg" xmlns:xlink="http://www.w3.org/1999/xlink">
    <!-- Generator: Sketch 3.6.1 (26313) - http://www.bohemiancoding.com/sketch -->
    <title>Shape</title>
    <desc>Created with Sketch.</desc>
    <defs></defs>
    <g id="Page-2" stroke="none" stroke-width="1" fill="none" fill-rule="evenodd">
        <g id="Artboard-2" transform="translate(-758.000000, -408.000000)" fill="#E5C228">
            <path d="M793.384817,430.051328 L792.286119,428.952631 L784.666982,436.571768 L782.762197,434.666984 L790.381334,427.047846 L786.571764,423.238277 L782.762197,427.047846 L780.857412,425.143062 L784.666982,421.333493 L780.857412,417.523924 L773.238274,425.143062 L771.333489,423.238277 L778.952627,415.61914 L775.143059,411.809571 L761.809567,425.143062 L780.051325,443.384819 L778.14654,445.289603 L758,425.143062 L775.143059,408.000002 L795.289599,428.146544 L793.384817,430.051328 L793.384817,430.051328 Z M810.527876,447.194388 L813.238746,449.905259 L805.619608,457.524397 L807.524393,459.429181 L815.143531,451.810044 L818.953101,455.619612 L815.143531,459.429181 L817.048316,461.333965 L820.857886,457.524397 L824.667453,461.333965 L817.048316,468.953103 L818.953101,470.857887 L826.572238,463.23875 L830.381805,467.048319 L817.048316,480.381809 L797.194384,460.527879 L795.289599,462.432663 L817.048316,484.191378 L834.191375,467.048319 L812.432661,445.289603 L810.527876,447.194388 L810.527876,447.194388 Z M818.031472,409.214241 L764.697509,462.548203 L759.935548,480.643655 L778.031001,475.881694 L831.364964,422.547731 L831.364964,418.738163 L821.841042,409.214241 L818.031472,409.214241 L818.031472,409.214241 Z M819.174343,411.880938 L814.221905,416.833378 L823.745825,426.3573 L828.698265,421.40486 L828.698276,419.881045 L820.698158,411.880927 L819.174343,411.880938 L819.174343,411.880938 Z M768.507079,462.548203 L770.411864,464.452988 L814.221905,420.642947 L812.31712,418.738163 L768.507079,462.548203 L768.507079,462.548203 Z M772.316646,466.357772 L774.221431,468.262557 L818.031472,424.452516 L816.126687,422.547731 L772.316646,466.357772 L772.316646,466.357772 Z M776.126216,470.167341 L778.031001,472.072126 L821.841042,428.262085 L819.936257,426.3573 L776.126216,470.167341 L776.126216,470.167341 Z M763.687975,476.89123 L775.840509,473.691204 L766.888001,464.738694 L763.687975,476.89123 L763.687975,476.89123 Z" id="Shape"></path>
        </g>
    </g>
</svg>