<?xml version="1.0" encoding="UTF-8" standalone="no"?>
<svg width="49px" height="41px" viewBox="0 0 49 41" version="1.1" xmlns="http://www.w3.org/2000/svg" xmlns:xlink="http://www.w3.org/1999/xlink">
    <!-- Generator: Sketch 3.6.1 (26313) - http://www.bohemiancoding.com/sketch -->
    <title>School</title>
    <desc>Created with Sketch.</desc>
    <defs></defs>
    <g id="Page-2" stroke="none" stroke-width="1" fill="none" fill-rule="evenodd">
        <g id="Artboard-2" transform="translate(-972.000000, -618.000000)" stroke="#E5C228" fill="#E5C228">
            <g id="Group" transform="translate(973.000000, 619.000000)">
                <path d="M40.7090526,0.698441333 C40.6377552,0.694480366 33.4952525,0.31554791 29.5690546,0.31554791 C26.4614563,0.31554791 24.4035142,1.7639413 23.4990936,2.56933781 C22.6338424,1.75337873 20.6582004,0.31554791 17.480185,0.31554791 C13.4444003,0.31554791 6.41060413,0.694480366 6.34018695,0.698441333 C5.98986147,0.71736595 5.71567457,1.00695661 5.71567457,1.35772219 L5.71567457,30.9162142 C5.71567457,31.0975384 5.79049283,31.2713808 5.92208493,31.3959312 C6.05367704,31.5204816 6.22531892,31.5816565 6.41192445,31.575495 C6.48190152,31.5715341 13.4954528,31.1930417 17.4806251,31.1930417 C21.1066698,31.1930417 22.861378,33.7020939 22.9361962,33.8121208 C22.9366363,33.813001 22.9375165,33.8134411 22.9379566,33.8143213 C22.9652433,33.8543711 22.9973711,33.8900198 23.0325797,33.9230278 C23.041822,33.93183 23.0519445,33.9388717 23.0620669,33.9472337 C23.0906739,33.9718797 23.1214814,33.9930049 23.1540494,34.0119295 C23.1641718,34.018091 23.1747344,34.0233723 23.185297,34.0286536 C23.222266,34.0475782 23.2605554,34.0625419 23.3010452,34.0744248 C23.3085271,34.0766253 23.3155688,34.0792659 23.3230506,34.0814665 C23.3745432,34.0937895 23.4273561,34.1030317 23.4828096,34.1030317 C23.5360626,34.1030317 23.587115,34.0946697 23.6368472,34.0832269 C23.6412482,34.0819066 23.6456493,34.0801462 23.6496103,34.0788258 C23.693621,34.0678231 23.7349911,34.0515392 23.7746008,34.0321744 C23.783843,34.0277734 23.791765,34.0229322 23.8005671,34.018091 C23.8353356,33.9991664 23.8674634,33.977161 23.898271,33.952515 C23.9075132,33.9450332 23.9163154,33.9384316 23.9255576,33.9300695 C23.955925,33.9023428 23.9836518,33.8719754 24.0087379,33.8385272 C24.0126989,33.8332459 24.0179802,33.8292849 24.0219411,33.8240037 C24.0985198,33.7161773 25.9328874,31.1934818 29.5699348,31.1934818 C33.5573077,31.1934818 40.5677782,31.5719742 40.6381953,31.5759351 C40.8102773,31.5812164 40.9955625,31.5209217 41.1271546,31.3963713 C41.259627,31.2718209 41.333565,31.0979785 41.333565,30.9166543 L41.333565,1.35772219 C41.3340051,1.00695661 41.0598182,0.716925843 40.7090526,0.698441333 L40.7090526,0.698441333 Z M17.4806251,29.8722795 C14.205346,29.8722795 8.92229696,30.1249011 7.03555661,30.2212846 L7.03555661,1.98487521 C8.8474787,1.89245266 14.1820203,1.63631016 17.4797449,1.63631016 C20.6251924,1.63631016 22.3517336,3.24666307 22.8226485,3.76026839 L22.8226485,31.7907076 C21.7628699,30.89905 19.9980393,29.8722795 17.4806251,29.8722795 L17.4806251,29.8722795 Z M40.0141231,30.2204044 C38.1282629,30.1240209 32.8469744,29.8722795 29.5703749,29.8722795 C27.0261141,29.8722795 25.2212337,30.9219356 24.1429707,31.8175541 L24.1429707,3.77611226 C24.6671385,3.24710318 26.5138291,1.63675027 29.5690546,1.63675027 C32.7813984,1.63675027 38.1867972,1.89377298 40.0141231,1.98531532 L40.0141231,30.2204044 L40.0141231,30.2204044 Z M23.4828096,39.383 C23.3116078,39.383 23.1465675,39.3169839 23.0233375,39.1972747 C22.4626407,38.6550624 20.6929689,37.2458386 19.2599793,37.2458386 L0.660161073,37.2458386 C0.295312053,37.2458386 0,36.9500864 0,36.5856775 L0,7.41888106 C0,7.05403204 0.295312053,6.75871998 0.660161073,6.75871998 L2.69697804,6.75871998 C3.06182706,6.75871998 3.35713911,7.05403204 3.35713911,7.41888106 C3.35713911,7.78373008 3.06182706,8.07904213 2.69697804,8.07904213 L1.32032215,8.07904213 L1.32032215,35.9255164 L19.2599793,35.9255164 C20.9407493,35.9255164 22.6532072,37.1538561 23.463885,37.82546 C24.2248306,37.1428534 25.8149386,35.9255164 27.4728231,35.9255164 L45.7306779,35.9255164 L45.7306779,8.07904213 L44.3535819,8.07904213 C43.9896131,8.07904213 43.6934208,7.78373008 43.6934208,7.41888106 C43.6934208,7.05403204 43.9896131,6.75871998 44.3535819,6.75871998 L46.3908389,6.75871998 C46.7552478,6.75871998 47.051,7.05403204 47.051,7.41888106 L47.051,36.5856775 C47.051,36.9500864 46.7552478,37.2458386 46.3908389,37.2458386 L27.4728231,37.2458386 C26.0803234,37.2458386 24.4677699,38.6374581 23.963847,39.1743891 C23.8428174,39.3033406 23.6751365,39.3781588 23.4977732,39.3825599 C23.4929321,39.383 23.4880909,39.383 23.4828096,39.383 Z" id="School"></path>
            </g>
        </g>
    </g>
</svg>