<?xml version="1.0" encoding="UTF-8" standalone="no"?>
<svg width="63px" height="54px" viewBox="0 0 63 54" version="1.1" xmlns="http://www.w3.org/2000/svg" xmlns:xlink="http://www.w3.org/1999/xlink">
    <!-- Generator: Sketch 3.6.1 (26313) - http://www.bohemiancoding.com/sketch -->
    <title>Shape</title>
    <desc>Created with Sketch.</desc>
    <defs>
        <filter x="-50%" y="-50%" width="200%" height="200%" filterUnits="objectBoundingBox" id="filter-1">
            <feOffset dx="0" dy="2" in="SourceAlpha" result="shadowOffsetOuter1"></feOffset>
            <feGaussianBlur stdDeviation="2" in="shadowOffsetOuter1" result="shadowBlurOuter1"></feGaussianBlur>
            <feColorMatrix values="0 0 0 0 0   0 0 0 0 0   0 0 0 0 0  0 0 0 0.35 0" in="shadowBlurOuter1" type="matrix" result="shadowMatrixOuter1"></feColorMatrix>
            <feMerge>
                <feMergeNode in="shadowMatrixOuter1"></feMergeNode>
                <feMergeNode in="SourceGraphic"></feMergeNode>
            </feMerge>
        </filter>
    </defs>
    <g id="Page-1" stroke="none" stroke-width="1" fill="none" fill-rule="evenodd" filter="url(#filter-1)">
        <g id="Artboard-1-Copy-2" transform="translate(-269.000000, -595.000000)" fill="#E5C228">
            <g id="Sketch" transform="translate(0.000000, 552.000000)">
                <g id="Stop1">
                    <g transform="translate(48.000000, 32.000000)">
                        <g transform="translate(225.000000, 0.000000)">
                            <path d="M54.6032469,26.0452754 C54.3967598,26.4545389 54.2935162,26.8126445 54.0698219,27.0854869 C47.7719654,35.0661259 41.4396944,43.0297123 35.1246306,51.0103514 C33.2490394,53.3806694 31.3734483,55.7509874 29.4978572,58.1213054 C28.5686652,59.2979381 27.8803749,59.3320433 26.8823539,58.1724633 C18.6744918,48.7252966 10.4838368,39.2610772 2.29318193,29.8139105 C1.69092788,29.1318046 1.08867385,28.4496987 0.50362707,27.7505401 C-0.184663259,26.9490657 -0.167456,26.4033809 0.555248842,25.6701171 C4.46129646,21.7139029 8.38455136,17.7576887 12.2733917,13.8014744 C12.8068167,13.2557897 13.3918635,13 14.1661901,13 C22.7870264,13.0170526 31.4250701,13.0170526 40.0459065,13 C41.0095129,13 41.7150105,13.289895 42.3860935,13.9549483 C46.1888976,17.6553728 50.0261162,21.321692 53.8289202,25.0050639 C54.1386509,25.2949589 54.345138,25.6701171 54.6032469,26.0452754 L54.6032469,26.0452754 L54.6032469,26.0452754 Z M27.9836185,53.1248797 C28.0524475,53.1248797 28.1212765,53.107827 28.1901056,53.107827 C30.4614636,44.7520297 32.7328217,36.3962324 35.021387,27.9551719 L19.8617926,27.9551719 C22.5977466,36.4132851 25.2820789,44.7690823 27.9836185,53.1248797 L27.9836185,53.1248797 L27.9836185,53.1248797 Z M3.89345693,27.9210666 C10.9828473,36.0892847 17.9173724,44.0869764 24.8518974,52.0676155 C24.3356797,49.7996134 23.6301821,47.6509798 22.9418918,45.4852935 C21.1351297,39.8920252 19.3283676,34.2817041 17.55602,28.6884358 C17.3667401,28.091593 17.091424,27.8869613 16.4719627,27.9210666 C15.4223199,27.9722246 14.3554699,27.9210666 13.2886199,27.9210666 L3.89345693,27.9210666 L3.89345693,27.9210666 L3.89345693,27.9210666 Z M50.2842251,27.9210666 L39.9770774,27.9210666 C39.2027508,27.9210666 38.2391444,27.6993822 37.7229266,28.0745404 C37.2239161,28.4496987 37.2067088,29.4387522 36.9830145,30.1720161 C36.9830145,30.2061214 36.9658072,30.223174 36.9658072,30.2572793 C35.1590451,36.8566539 33.3694902,43.4560285 31.5627281,50.0724557 C31.4078628,50.6522458 31.2702048,51.2490884 31.1153394,51.8459311 C31.1669612,51.8800364 31.2357902,51.8970891 31.287412,51.9311944 C37.5680613,43.9676079 43.8659177,36.0381268 50.2842251,27.9210666 L50.2842251,27.9210666 L50.2842251,27.9210666 Z M33.954537,25.5166433 C31.752008,22.4642194 29.6699298,19.5823219 27.553437,16.6322139 C25.3164934,19.6334799 23.1827934,22.4983247 20.9458498,25.5166433 L33.954537,25.5166433 L33.954537,25.5166433 L33.954537,25.5166433 Z M50.8692719,25.4995907 C47.6343073,22.3960088 44.5886226,19.4800061 41.4396944,16.4616874 C40.3900516,19.5652693 39.4092379,22.481272 38.3940097,25.4995907 L50.8692719,25.4995907 L50.8692719,25.4995907 L50.8692719,25.4995907 Z M13.0993401,16.4787401 C10.1052772,19.5141114 7.21445776,22.4130615 4.22039485,25.4484327 L16.3859264,25.4484327 C15.2846618,22.4471667 14.2350191,19.5652693 13.0993401,16.4787401 L13.0993401,16.4787401 L13.0993401,16.4787401 Z M18.6572845,24.4593791 C20.9114353,21.4240079 23.0795498,18.5250578 25.3164934,15.5237918 L15.3879054,15.5237918 C16.4719627,18.5080052 17.5388127,21.4069553 18.6572845,24.4593791 L18.6572845,24.4593791 L18.6572845,24.4593791 Z M29.7731733,15.5067392 C31.9412878,18.5080052 34.0061588,21.37285 36.1570661,24.3741159 C37.2067088,21.2875867 38.1703153,18.4397946 39.151129,15.5067392 L29.7731733,15.5067392 L29.7731733,15.5067392 L29.7731733,15.5067392 Z" id="Shape"></path>
                        </g>
                    </g>
                </g>
            </g>
        </g>
    </g>
</svg>